<svg width="32" height="32" viewBox="0 0 32 32" fill="none" xmlns="http://www.w3.org/2000/svg">
<path d="M28 9.33333C28 6.4 25.6 4 22.6667 4H21.3333C20.5333 4 20 4.53333 20 5.33333C20 6.13333 20.5333 6.66667 21.3333 6.66667H22.6667C24.1333 6.66667 25.3333 7.86667 25.3333 9.33333V10.8C25.3333 11.6 25.8667 12.1333 26.6667 12.1333C27.4667 12.1333 28 11.6 28 10.8V9.33333ZM28 21.3333C28 20.5333 27.4667 20 26.6667 20C25.8667 20 25.3333 20.5333 25.3333 21.3333V22.6667C25.3333 24.1333 24.1333 25.3333 22.6667 25.3333H21.3333C20.5333 25.3333 20 25.8667 20 26.6667C20 27.4667 20.5333 28 21.3333 28H22.6667C25.6 28 28 25.6 28 22.6667V21.3333ZM4 22.6667C4 25.6 6.4 28 9.33333 28H10.6667C11.4667 28 12 27.4667 12 26.6667C12 25.8667 11.4667 25.3333 10.6667 25.3333H9.33333C7.86667 25.3333 6.66667 24.1333 6.66667 22.6667V21.3333C6.66667 20.5333 6.13333 20 5.33333 20C4.53333 20 4 20.5333 4 21.3333V22.6667ZM10.6667 4H9.33333C6.4 4 4 6.4 4 9.33333V10.6667C4 11.4667 4.53333 12 5.33333 12C6.13333 12 6.66667 11.4667 6.66667 10.6667V9.33333C6.66667 7.86667 7.86667 6.66667 9.33333 6.66667H10.6667C11.4667 6.66667 12 6.13333 12 5.33333C12 4.53333 11.4667 4 10.6667 4ZM20 12C20 9.73333 18.2667 8 16 8C13.7333 8 12 9.73333 12 12C12 14.2667 13.7333 16 16 16C18.2667 16 20 14.2667 20 12ZM16 13.3333C15.2 13.3333 14.6667 12.8 14.6667 12C14.6667 11.2 15.2 10.6667 16 10.6667C16.8 10.6667 17.3333 11.2 17.3333 12C17.3333 12.8 16.8 13.3333 16 13.3333Z" fill="black"/>
<path d="M9.99998 19.2L9.46665 20.9333C9.19998 21.6 9.59998 22.4 10.2666 22.6667C10.9333 22.9333 11.7333 22.5333 12 21.8667L12.5333 20C12.8 19.2 13.6 18.6667 14.4 18.6667H17.6C18.4 18.6667 19.2 19.2 19.4666 20L20 21.7333C20.1333 22.2667 20.6666 22.6667 21.2 22.6667C21.3333 22.6667 21.4666 22.6667 21.6 22.5333C22.2666 22.2667 22.6666 21.6 22.4 20.8L21.8666 19.0667C21.3333 17.3333 19.6 16 17.6 16H14.4C12.4 16 10.6666 17.3333 9.99998 19.2Z" fill="black"/>
</svg>
