<svg width="173" height="41" viewBox="0 0 173 41" fill="none" xmlns="http://www.w3.org/2000/svg">
<path d="M40.3384 20.4192C40.3384 31.4088 31.4088 40.3384 20.4192 40.3384C9.42958 40.3384 0.5 31.4088 0.5 20.4192C0.5 9.42958 9.42958 0.5 20.4192 0.5C31.4088 0.5 40.3384 9.42958 40.3384 20.4192Z" fill="white" stroke="#043144"/>
<path d="M64.5677 22.778C63.265 22.778 62.2089 21.7218 62.2089 20.4192C62.2089 19.1166 63.265 18.0604 64.5677 18.0604H65.6238V0H64.5677C53.3019 0 44.1484 9.15344 44.1484 20.4192C44.1484 31.685 53.3019 40.8384 64.5677 40.8384H65.6238V22.778H64.5677Z" fill="#FB5A17"/>
<path d="M92.132 11.6178C92.132 8.55493 90.2661 5.87931 86.4991 5.87931C82.7321 5.87931 80.8663 8.59013 80.8663 11.6178C80.8663 14.6455 82.7321 17.3563 86.4991 17.3563C90.2661 17.3563 92.132 14.6807 92.132 11.6178ZM95.6526 11.6178C95.6526 16.8986 91.4279 20.6656 86.4991 20.6656C81.5704 20.6656 77.3457 16.8986 77.3457 11.6178C77.3457 6.33698 81.5704 2.56998 86.4991 2.56998C91.4279 2.46436 95.6526 6.33698 95.6526 11.6178ZM101.532 20.4192C99.8772 20.4192 98.117 19.9615 96.8496 19.363L97.3072 16.6522C98.7155 17.3563 99.8772 17.814 101.426 17.814C102.588 17.814 103.539 17.4619 103.539 16.6522C103.539 14.5399 96.9552 15.9481 96.9552 11.1249C96.9552 9.25904 98.3634 7.25232 102.13 7.25232C103.644 7.25232 104.947 7.60437 106.109 8.06205V10.7729C104.947 10.0688 103.644 9.82232 102.342 9.82232C101.18 9.82232 100.581 10.28 100.581 10.7729C100.581 12.8852 106.918 11.477 106.918 16.3001C106.918 18.0604 105.757 20.4192 101.532 20.4192ZM115.121 9.85753C113.009 9.85753 111.847 11.2658 111.847 12.674V17.1451C112.551 17.4971 113.502 17.7436 114.558 17.7436C117.269 17.7436 118.536 15.9833 118.536 13.6245C118.536 11.2658 117.374 9.85753 115.121 9.85753ZM114.558 20.4192C112.551 20.4192 110.439 19.9615 108.679 19.011V2.92204H111.847V8.55492C112.551 7.85081 113.959 7.1467 115.614 7.1467C119.029 7.1467 121.705 9.15342 121.705 13.5893C121.705 18.2012 118.29 20.4192 114.558 20.4192ZM133.217 13.8358C133.217 12.0755 132.161 10.2096 129.696 10.2096C127.232 10.2096 126.176 12.0755 126.176 13.8358C126.176 15.596 127.232 17.4619 129.696 17.4619C132.161 17.4619 133.217 15.596 133.217 13.8358ZM123.007 13.8358C123.007 10.0688 125.718 7.1467 129.696 7.1467C133.569 7.1467 136.385 10.0688 136.385 13.8358C136.385 17.6027 133.675 20.5248 129.696 20.5248C125.824 20.4192 123.007 17.6027 123.007 13.8358ZM141.314 11.3714V20.1727H138.146V7.49876H140.856L140.962 8.66054C142.018 7.85082 143.673 7.25232 145.292 7.25232L144.694 10.3152C143.532 10.2096 142.018 10.9137 141.314 11.3714ZM155.396 12.0755C155.396 11.0193 154.587 10.0688 153.178 10.0688C152.017 10.0688 150.714 10.6673 150.01 11.0193V20.0671H146.841V7.49876H149.552L149.658 8.66054C150.714 7.85082 152.369 7.25232 153.883 7.25232C156.241 7.25232 158.706 7.95643 158.706 12.2867V20.2784H155.537C155.396 20.1728 155.396 12.0755 155.396 12.0755ZM163.353 12.3219H169.936C169.584 11.0193 168.528 9.85753 166.768 9.85753C165.007 9.85753 163.846 11.0193 163.353 12.3219ZM166.662 7.1467C170.887 7.1467 172.999 10.3152 172.999 13.7301V14.6807H163.142C163.494 16.441 164.902 17.7436 167.366 17.7436C169.021 17.7436 170.429 17.1451 171.697 16.441L172.753 18.9054C171.098 19.9615 169.232 20.56 167.014 20.56C162.191 20.56 159.973 17.4971 159.973 13.9766C160.079 9.96315 162.895 7.1467 166.662 7.1467ZM93.8923 36.9658C92.2376 39.4302 89.9141 40.8384 86.4991 40.8384C81.5704 40.8384 77.3457 37.0714 77.3457 31.7906C77.3457 26.5097 81.5704 22.7428 86.4991 22.7428C89.7733 22.7428 92.132 24.151 93.7867 26.5097L91.4279 28.6221C90.4774 26.9674 88.9635 25.9113 86.6048 25.9113C82.8378 25.9113 80.9719 28.6221 80.9719 31.6498C80.9719 34.6774 82.8378 37.3883 86.6048 37.3883C88.9635 37.3883 90.3718 36.4377 91.4279 34.9239L93.8923 36.9658Z" fill="#043144"/>
<path d="M95.6523 23.1304H98.8208V40.3811H95.6523V23.1304Z" fill="#043144"/>
<path d="M107.025 38.0223C109.243 38.0223 110.299 36.5085 110.299 34.7482V31.2276C109.348 30.6291 108.292 30.1715 107.13 30.1715C104.56 30.1715 103.61 32.2838 103.61 34.2905C103.645 36.1564 104.701 38.0223 107.025 38.0223ZM106.814 27.355C108.468 27.355 109.736 27.9535 110.686 28.6576L110.792 27.7071H113.503V40.3811H110.334V39.3249C109.524 40.1346 108.116 40.6275 106.708 40.6275C103.293 40.6275 100.477 38.6208 100.477 34.1849C100.477 30.0307 103.504 27.355 106.814 27.355ZM118.889 31.5797V40.3811H115.721V27.7071H118.431L118.537 28.8689C119.593 28.0591 121.248 27.4606 122.867 27.4606L122.269 30.5235C121.248 30.3827 119.593 31.0868 118.889 31.5797ZM127.444 40.3811H124.275V23.1304H127.444V33.0935L132.267 27.5663H136.034L131 33.3048L136.985 40.3459H132.76L127.479 34.0089C127.444 34.0441 127.444 40.3811 127.444 40.3811Z" fill="#043144"/>
<path d="M138.956 32.495H145.539C145.187 31.1924 144.131 30.0306 142.371 30.0306C140.611 30.0306 139.414 31.2276 138.956 32.495ZM142.23 27.355C146.455 27.355 148.567 30.5235 148.567 33.9384V34.889H138.71C139.062 36.6492 140.47 37.9518 142.934 37.9518C144.589 37.9518 145.997 37.3534 147.264 36.6492L148.321 39.1136C146.666 40.1698 144.8 40.7683 142.582 40.7683C137.759 40.7683 135.541 37.7054 135.541 34.1849C135.541 30.1714 138.498 27.355 142.23 27.355Z" fill="#043144"/>
</svg>
