<svg width="163" height="50" viewBox="0 0 163 50" fill="none" xmlns="http://www.w3.org/2000/svg">
<path d="M116.774 30.3249C116.545 30.4501 116.308 30.6023 116.07 30.7069C115.368 31.0294 114.65 31.1132 114.007 31.1132C113.322 31.1132 112.26 31.0681 111.171 30.2852C109.661 29.2149 109 27.387 109 25.786C109 22.4833 111.689 20.8652 113.878 20.8652C114.648 20.8652 115.437 21.058 116.071 21.4625C117.14 22.1635 117.414 23.0824 117.568 23.5725L112.559 25.5941L110.922 25.7275C111.452 28.4248 113.282 30.0023 115.305 30.0023C116.394 30.0023 117.18 29.6212 117.906 29.2591L116.774 30.3249ZM114.775 23.977C115.175 23.8284 115.393 23.7004 115.393 23.3986C115.393 22.5481 114.432 21.5661 113.282 21.5661C112.432 21.5661 110.831 22.2292 110.831 24.532C110.831 24.8914 110.873 25.277 110.896 25.6581L114.775 23.977Z" fill="#3158A6"/>
<path d="M108.486 30.7915H104.714C105.206 30.1572 105.289 30.0887 105.289 29.6698V26.1977C105.289 24.5346 105.311 22.167 105.381 19.9525C105.397 18.8642 105.481 17.502 105.501 16.5218H103.844L105.44 15.7524H108.488C107.827 16.138 107.614 16.2669 107.53 17.0128C107.36 18.6516 107.338 21.2498 107.338 24.2769V29.1941C107.338 30.0239 107.488 30.1554 108.19 30.2131C108.551 30.2626 108.915 30.2851 109.276 30.3248L108.486 30.7915Z" fill="#3158A6"/>
<path d="M101.501 21.9086C101.992 22.314 103.011 23.1681 103.011 24.7879C103.011 26.3619 102.117 27.1078 101.224 27.8123C100.946 28.0853 100.624 28.388 100.624 28.8574C100.624 29.3214 100.946 29.5781 101.178 29.7682L101.948 30.3655C102.884 31.1565 103.735 31.8782 103.735 33.3476C103.735 35.353 101.798 37.372 98.1303 37.372C95.044 37.372 93.5513 35.908 93.5513 34.3296C93.5513 33.5629 93.9344 32.4746 95.1918 31.7286C96.5124 30.9214 98.3025 30.8097 99.2589 30.7493C98.9632 30.3655 98.6225 29.9655 98.6225 29.3042C98.6225 28.9376 98.7271 28.7304 98.8361 28.47C98.6 28.4916 98.3674 28.5123 98.1565 28.5123C95.894 28.5123 94.6194 26.8312 94.6194 25.169C94.6194 24.1906 95.0629 23.1005 95.9769 22.314C97.1965 21.3122 98.6441 21.1428 99.7934 21.1428H104.182L102.818 21.9095L101.501 21.9086ZM99.9845 31.3655C99.815 31.3466 99.7096 31.3466 99.4959 31.3466C99.304 31.3466 98.1574 31.389 97.2596 31.6881C96.7909 31.8574 95.4253 32.3674 95.4253 33.8827C95.4253 35.3917 96.8982 36.481 99.1751 36.481C101.222 36.481 102.311 35.4981 102.311 34.1818C102.31 33.0935 101.604 32.5187 99.9845 31.3655ZM100.606 27.3231C101.093 26.8312 101.137 26.1519 101.137 25.7663C101.137 24.2375 100.222 21.8438 98.4539 21.8438C97.896 21.8438 97.3011 22.123 96.9612 22.5465C96.5971 22.996 96.4916 23.5735 96.4916 24.1258C96.4916 25.5528 97.3218 27.9177 99.1552 27.9177C99.6907 27.9186 100.262 27.6601 100.606 27.3231ZM88.3142 31.0664C84.9259 31.0664 83.1123 28.4286 83.1123 26.0447C83.1123 23.2492 85.3928 20.8645 88.6315 20.8645C91.7647 20.8645 93.7235 23.314 93.7235 25.8925C93.7262 28.4087 91.7864 31.0664 88.3142 31.0664ZM90.9778 29.3403C91.4853 28.661 91.6151 27.8132 91.6151 26.9808C91.6151 25.1078 90.7191 21.5275 88.079 21.5275C87.3743 21.5348 86.6946 21.7896 86.159 22.2474C85.3306 22.996 85.1801 23.9366 85.1801 24.8519C85.1801 26.9619 86.2257 30.4295 88.8019 30.4295C89.6339 30.4295 90.4866 30.0241 90.9778 29.3403ZM76.9757 31.0664C73.5882 31.0664 71.7764 28.4286 71.7764 26.0447C71.7764 23.2492 74.0543 20.8645 77.2956 20.8645C80.4271 20.8645 82.3876 23.314 82.3876 25.8925C82.3876 28.4087 80.4469 31.0664 76.9757 31.0664ZM79.6375 29.3403C80.1485 28.661 80.2774 27.8132 80.2774 26.9808C80.2774 25.1078 79.3824 21.5275 76.7413 21.5275C76.0382 21.5275 75.3333 21.8059 74.8231 22.2474C73.9903 22.996 73.8397 23.9366 73.8397 24.8519C73.8397 26.9619 74.8871 30.4295 77.4651 30.4295C78.2962 30.4295 79.1471 30.0241 79.6375 29.3403ZM70.4018 30.3268L67.5435 30.9836C66.3843 31.161 65.345 31.325 64.2471 31.325C58.7352 31.325 56.6367 27.2691 56.6367 24.0978C56.6367 20.2221 59.6149 16.6274 64.7096 16.6274C65.7858 16.6274 66.8251 16.7869 67.7626 17.0491C69.2625 17.4671 69.962 17.9833 70.4036 18.2842L68.7442 19.8608L68.0456 20.0221L68.5441 19.2248C67.8653 18.5626 66.6277 17.3446 64.2679 17.3446C61.1157 17.3446 58.737 19.7446 58.737 23.2357C58.737 26.9925 61.4546 30.5277 65.8065 30.5277C67.0865 30.5277 67.7472 30.2682 68.3431 30.0241V26.8114L65.327 26.9745L66.9252 26.115H71.1599L70.6398 26.615C70.501 26.733 70.4803 26.7745 70.4406 26.9339C70.4217 27.1132 70.4036 27.6925 70.4036 27.8907V30.3295M125.935 30.7917H124.418L122.208 21.1455H123.401L125.216 29.7961L127.111 21.1455H128.648L130.561 29.7961L132.334 21.1455H133.51L131.32 30.7917H129.802L127.889 22.1816L125.935 30.7917ZM140.551 24.0969C140.551 22.5221 139.854 21.9239 138.258 21.9239C137.026 21.9239 136.283 22.6023 136.106 23.7168L135.03 23.5591C135.246 21.9834 136.484 20.9284 138.299 20.9284C140.433 20.9284 141.626 21.8437 141.626 23.9762V28.8988C141.626 29.7358 141.685 30.3115 141.807 30.7926H140.689C140.591 30.534 140.551 30.0538 140.551 29.7772C140.094 30.4511 139.017 31.0124 138.003 31.0124C136.223 31.0124 134.829 29.9322 134.829 27.7844C134.829 25.8096 136.246 24.715 138.258 24.715C139.237 24.715 140.035 24.8934 140.551 25.1339V24.0969ZM140.551 26.1682C140.012 25.9078 139.258 25.6916 138.241 25.6916C136.884 25.6916 135.927 26.3673 135.927 27.7835C135.927 29.2763 136.822 29.9943 138.059 29.9943C139.155 29.9943 140.151 29.197 140.552 28.3403V26.1682M143.825 17.041H144.919V30.7917H143.825V17.041ZM147.252 17.041H148.351V30.7917H147.252V17.041ZM153.795 29.9736C154.973 29.9736 155.829 29.2763 156.045 27.4628L157.16 27.6231C156.882 29.9529 155.544 31.0115 153.795 31.0115C151.497 31.0115 150.145 29.3358 150.145 25.8889C150.145 22.7996 151.3 20.9284 153.675 20.9284C156.167 20.9284 157.16 22.9978 157.16 25.8087V26.1673H151.283C151.282 28.8178 152.276 29.9736 153.795 29.9736ZM155.99 25.1717V25.133C155.927 23.3384 155.209 21.9429 153.678 21.9429C152.179 21.9429 151.365 23.1987 151.283 25.1717H155.99ZM162.252 30.7313C162.009 30.8286 161.57 30.9079 161.094 30.9079C159.657 30.9079 159.198 30.1935 159.198 28.8178V22.1429H157.942V21.1455H159.198V18.0374L160.317 17.5986V21.1455H162.252V22.1429H160.319V28.679C160.319 29.5943 160.493 29.8565 161.274 29.8565C161.652 29.8565 161.99 29.7763 162.252 29.6367V30.7313Z" fill="#3158A6"/>
<path d="M18.227 22.4418C15.384 18.5237 11.4269 15.0921 6.94253 12.693C6.39642 12.4002 5.7979 12.2179 5.18123 12.1565C4.56455 12.0951 3.94182 12.1559 3.34866 12.3353C2.7555 12.5147 2.20355 12.8092 1.72439 13.202C1.24523 13.5948 0.848258 14.0782 0.556194 14.6245C-0.0326399 15.7274 -0.159767 17.0187 0.202698 18.2151C0.565163 19.4116 1.38762 20.4155 2.48967 21.0066C9.40873 24.7067 13.8733 31.7645 14.3961 39.9214V39.9025C14.3097 38.9922 14.4789 38.0759 14.8847 37.2565C14.9406 37.1402 15.0064 37.0141 15.0902 36.8781C17.2532 33.3131 18.3948 29.2228 18.3902 25.0535C18.3902 24.1769 18.3271 23.3067 18.227 22.4418Z" fill="#3158A6"/>
<path d="M45.6162 13.5669C44.7812 9.91145 43.5467 6.35881 41.9349 2.97303C41.5082 2.08479 40.8397 1.33474 40.0061 0.808888C39.1724 0.283039 38.2073 0.00269162 37.2215 0C36.4454 0 35.6919 0.169373 34.9861 0.506316C32.391 1.74057 31.2841 4.86495 32.519 7.45239C35.1672 13.0336 36.4761 18.9292 36.4761 25.0545C36.4761 31.1771 35.16 37.0682 32.5631 42.5584C32.5244 42.6404 32.0701 43.6116 32.0701 44.735C32.0688 45.142 32.1132 45.5479 32.2026 45.945C32.3754 46.7146 32.7216 47.4348 33.2149 48.0505C33.7082 48.6662 34.3355 49.1614 35.0492 49.4982C35.7444 49.8289 36.5047 50.0003 37.2747 50C38.2085 49.9967 39.1245 49.7443 39.928 49.2688C40.7316 48.7934 41.3936 48.1121 41.8456 47.2954C42.8858 45.3459 43.9369 42.7782 44.8536 39.4791C45.1411 38.4854 45.3845 37.552 45.6116 36.5421C46.4706 32.7732 46.9042 28.9199 46.9042 25.0545C46.9015 21.1895 46.4695 17.3367 45.6162 13.5669Z" fill="#449F27"/>
<path d="M23.5994 8.11238C23.5061 7.96169 23.4047 7.81614 23.2957 7.67633C22.8351 7.07341 22.2425 6.5839 21.5633 6.24533C20.8841 5.90677 20.1363 5.72814 19.3773 5.72314C18.5805 5.72314 18.1722 5.82134 17.5998 6.05018C17.0112 6.28351 16.3883 6.60424 15.825 7.19885C15.3254 7.72007 14.9403 8.33995 14.6946 9.0187C14.2223 10.2764 14.2782 11.9305 15.103 13.2548C16.8345 16.0359 17.8531 19.1928 18.2272 22.4424C18.3272 23.3072 18.3885 24.1784 18.3885 25.0559C18.3885 29.238 17.2483 33.3272 15.0885 36.8796C14.5359 37.79 14.293 38.8549 14.3963 39.9148C14.4664 40.686 14.7163 41.4302 15.126 42.0875C15.5356 42.7449 16.0936 43.2973 16.7552 43.7004C17.114 43.9148 17.4952 44.0797 17.89 44.1995C18.9442 44.526 20.0774 44.4898 21.1086 44.0969C22.1399 43.704 23.0095 42.9769 23.5787 42.0319C26.6848 36.9141 28.324 31.0417 28.3173 25.0559C28.3214 19.0836 26.6898 13.224 23.5994 8.11238Z" fill="#F8002E"/>
<path d="M32.5607 42.5598C35.1585 37.0687 36.4745 31.1776 36.4745 25.0541C36.4745 22.9487 36.3312 21.4144 36.2212 20.4405C32.8068 14.9819 27.8563 10.1025 22.0586 6.53125C22.0622 6.53215 22.1929 6.62044 22.2028 6.62585C22.603 6.91324 22.942 7.21775 23.2953 7.67451C23.4039 7.81491 23.5053 7.96075 23.5991 8.11146C26.6893 13.2225 28.3209 19.0814 28.3169 25.0532C28.3169 25.7667 28.2935 26.4812 28.2484 27.1911C30.7254 31.9002 32.0757 37.2543 32.0757 42.8679C32.0757 43.3121 32.0838 44.0328 32.0721 44.5572C32.1045 43.9565 32.2338 43.3651 32.4552 42.8058C32.4886 42.7229 32.5219 42.6391 32.5607 42.5598Z" fill="#FBBB08"/>
</svg>
