<svg width="126" height="64" viewBox="0 0 126 64" fill="none" xmlns="http://www.w3.org/2000/svg">
<path d="M27.713 2.42383C37.9405 10.3681 49.7006 9.86769 53.0472 9.86769C52.3278 54.9687 46.7293 48.9636 27.713 61.5994C8.69678 48.9636 3.1608 54.9687 2.41016 9.86769C5.75677 9.86769 17.4855 10.3368 27.713 2.42383Z" fill="white"/>
<path d="M27.7138 2.42395L29.1838 0.516066C28.3081 -0.172022 27.0883 -0.172022 26.2125 0.516066L27.7138 2.42395ZM53.0479 9.86781L55.4562 9.89908C55.4562 9.24227 55.206 8.61674 54.7682 8.17886C54.299 7.70971 53.7048 7.4595 53.0479 7.4595V9.86781ZM27.7138 61.5995L26.3689 63.6012C27.1821 64.1329 28.2455 64.1329 29.0587 63.6012L27.7138 61.5995ZM2.41092 9.86781V7.4595C1.75411 7.4595 1.12858 7.70971 0.690705 8.17886C0.221555 8.64801 -0.0286595 9.27355 0.00261722 9.89908L2.41092 9.86781ZM26.2438 4.33183C37.2219 12.8391 49.7639 12.2761 53.0479 12.2761V7.42822C49.6388 7.42822 38.6919 7.8661 29.1838 0.484787L26.2438 4.33183ZM50.6396 9.80525C50.452 21.0336 49.9828 28.9466 49.0758 34.8266C48.1688 40.6441 46.8864 44.1158 45.2288 46.5554C43.5398 49.0888 41.4443 50.5901 38.3479 52.4667C35.2202 54.3433 31.2481 56.3763 26.3689 59.5978L29.0587 63.6325C33.6876 60.5361 37.566 58.5657 40.85 56.6265C44.1654 54.6561 47.0741 52.4667 49.2635 49.2765C51.4841 45.9924 52.9228 41.7388 53.8611 35.5773C54.7994 29.4783 55.2999 21.2525 55.4875 9.89908L50.6396 9.80525ZM29.0587 59.5978C24.1795 56.3763 20.2387 54.3433 17.0797 52.4667C13.9833 50.6214 11.8878 49.0888 10.1988 46.5554C8.54116 44.1158 7.25882 40.6441 6.38307 34.8266C5.47604 28.9466 5.00689 21.0336 4.81923 9.80525L0.00261722 9.89908C0.190278 21.2213 0.690704 29.4783 1.62901 35.5773C2.56731 41.7388 4.00604 45.9924 6.22669 49.2765C8.41606 52.4667 11.3248 54.6248 14.6088 56.6265C17.8929 58.5969 21.7399 60.5674 26.3689 63.6325L29.0587 59.5978ZM2.41092 12.2761C5.6637 12.2761 18.2369 12.8078 29.1838 4.33183L26.2125 0.516066C16.7357 7.8661 5.78881 7.42822 2.41092 7.42822V12.2761Z" fill="#3375BB"/>
<path d="M73.3126 18.9395H68.7753V31.2426H65.7213V18.9395H61.2422V16.4673H73.2835V18.9395H73.3126ZM80.5258 25.8328H78.1117V31.2426H75.0577V16.4673H80.5549C82.3 16.4673 83.6379 16.8454 84.5977 17.6307C85.5575 18.416 86.0229 19.5212 86.0229 20.9173C86.0229 21.9353 85.7902 22.7788 85.354 23.4477C84.9177 24.1167 84.2487 24.6402 83.3761 25.0474L86.5755 31.0972V31.2426H83.318L80.5258 25.8328ZM78.1117 23.3605H80.5549C81.3111 23.3605 81.9219 23.1569 82.3291 22.7788C82.7363 22.4007 82.9689 21.8481 82.9689 21.15C82.9689 20.452 82.7653 19.8993 82.3581 19.4921C81.98 19.085 81.3693 18.8814 80.5549 18.8814H78.1117V23.3605ZM99.5185 16.4673V26.2109C99.5185 27.8396 99.0241 29.1194 98.0061 30.0501C96.9881 30.9809 95.6211 31.4753 93.876 31.4753C92.1599 31.4753 90.7929 31.0099 89.7749 30.1083C88.7569 29.2067 88.2334 27.9269 88.2334 26.3272V16.4673H91.2874V26.2109C91.2874 27.1707 91.52 27.8978 91.9854 28.3341C92.4508 28.7704 93.0906 29.0031 93.905 29.0031C95.6211 29.0031 96.4936 28.1014 96.5227 26.2981V16.4673H99.5185ZM109.698 27.3743C109.698 26.7926 109.495 26.3563 109.088 26.0654C108.68 25.7455 107.953 25.4256 106.906 25.0765C105.859 24.7275 105.016 24.3785 104.405 24.0586C102.718 23.1569 101.874 21.9353 101.874 20.3938C101.874 19.6085 102.107 18.8814 102.543 18.2706C103.009 17.6307 103.649 17.1362 104.492 16.7872C105.336 16.4382 106.295 16.2637 107.342 16.2637C108.39 16.2637 109.349 16.4673 110.164 16.8454C110.978 17.2235 111.618 17.7761 112.083 18.4742C112.549 19.1722 112.781 19.9575 112.781 20.8592H109.727C109.727 20.1902 109.524 19.6667 109.088 19.2885C108.651 18.9104 108.07 18.7068 107.284 18.7068C106.528 18.7068 105.946 18.8523 105.539 19.1722C105.132 19.4921 104.928 19.8993 104.928 20.4229C104.928 20.9173 105.161 21.2954 105.656 21.6445C106.15 21.9644 106.848 22.2843 107.808 22.5461C109.553 23.0696 110.804 23.7095 111.589 24.4948C112.374 25.2801 112.781 26.2399 112.781 27.3743C112.781 28.654 112.287 29.672 111.327 30.3992C110.367 31.1263 109.059 31.4753 107.43 31.4753C106.295 31.4753 105.248 31.2717 104.318 30.8645C103.387 30.4573 102.66 29.8756 102.165 29.1485C101.671 28.4214 101.438 27.5779 101.438 26.6181H104.492C104.492 28.2468 105.481 29.0612 107.43 29.0612C108.157 29.0612 108.709 28.9158 109.117 28.6249C109.495 28.305 109.698 27.8978 109.698 27.3743ZM125.957 18.9395H121.42V31.2426H118.366V18.9395H113.887V16.4673H125.928V18.9395H125.957Z" fill="#3375BB"/>
<path d="M67.6805 43.8877L68.0295 45.691L68.4658 43.9749L70.9671 35.4529H71.8397L74.312 43.9749L74.7482 45.691L75.1263 43.8877L77.2205 35.4529H78.2094L75.2427 46.9998H74.312L71.6943 37.9543L71.4034 36.8199L71.1126 37.9543L68.4367 46.9998H67.506L64.5684 35.4529H65.5573L67.6805 43.8877ZM86.0043 43.7423H80.7689L79.5764 46.9707H78.5293L82.8921 35.4238H83.8229L88.1857 46.9707H87.1677L86.0043 43.7423ZM81.0598 42.9278H85.6843L83.3575 36.6454L81.0598 42.9278ZM90.8906 46.1563H96.5913V46.9707H89.9017V35.4238H90.8906V46.1563ZM99.4708 46.1563H105.172V46.9707H98.4819V35.4238H99.4708V46.1563ZM113.432 41.4445H108.022V46.1563H114.246V46.9707H107.033V35.4238H114.188V36.2673H108.022V40.6301H113.432V41.4445ZM124.281 36.2673H120.325V46.9707H119.336V36.2673H115.38V35.4238H124.252V36.2673H124.281Z" fill="#2E91DB"/>
</svg>
