<svg width="176" height="35" viewBox="0 0 176 35" fill="none" xmlns="http://www.w3.org/2000/svg">
<path d="M10.7065 20.2934L17.5041 27.0911L24.3046 20.2907L28.2604 24.241L28.2576 24.2437L17.5041 35L6.75065 24.2493L6.74512 24.2437L10.7065 20.2934ZM21.5153 17.4986L17.5041 21.5153L13.493 17.5069L13.4875 17.4986L14.1952 16.7909L14.538 16.4509L17.5041 13.4847L21.5153 17.4986ZM27.0911 17.5014L31.0469 13.5455L35 17.5014L31.0469 21.4545L27.0911 17.5014ZM0 17.5014L3.95585 13.5455L7.90893 17.5014L3.95585 21.4545L0 17.5014ZM10.7065 14.7066L17.5041 7.9117L24.3046 14.7121L28.2576 10.7563L17.5041 0L6.75065 10.7535L10.7065 14.7066Z" fill="#F3BA2F"/>
<path d="M41.1699 8.48047H49.7727C51.9068 8.48047 53.5212 9.03335 54.6159 10.1391C55.448 10.9657 55.9069 12.0963 55.8848 13.2684V13.3209C55.8931 13.7964 55.8267 14.2691 55.6885 14.7252C55.5669 15.1178 55.3872 15.4882 55.1605 15.831C54.9477 16.1544 54.6906 16.4447 54.3976 16.6935C54.1101 16.9395 53.7949 17.1551 53.4604 17.3293C54.428 17.6666 55.2987 18.236 55.9954 18.9879C56.6118 19.6873 56.9187 20.6549 56.9187 21.8905V21.9431C56.9353 22.7143 56.7694 23.4773 56.4294 24.1712C56.1004 24.8097 55.6194 25.3571 55.0278 25.7635C54.3588 26.2113 53.6152 26.5347 52.8301 26.7172C51.8985 26.9383 50.9421 27.0434 49.9856 27.0351H41.1699V8.48047ZM48.9102 15.983C49.6538 16.019 50.3947 15.8586 51.0582 15.5186C51.5834 15.2118 51.893 14.6285 51.8488 14.0203V13.9678C51.8764 13.4094 51.6166 12.8731 51.1604 12.5497C50.7016 12.2235 50.0381 12.0604 49.1728 12.0604H45.1479V15.983H48.9102ZM49.9966 23.4607C50.7375 23.5022 51.4756 23.3336 52.1252 22.9714C52.6394 22.6425 52.9352 22.0564 52.8937 21.4455V21.393C52.9131 20.8152 52.6449 20.2623 52.1777 19.9223C51.7023 19.5546 50.9338 19.3694 49.8722 19.3694H45.1479V23.4607H49.9966Z" fill="#F3BA2F"/>
<path d="M62.0449 8.48047H66.1279V27.0406H62.0449V8.48047Z" fill="#F3BA2F"/>
<path d="M72.3047 8.48047H76.0698L84.7721 19.9029V8.48047H88.8026V27.0406H85.3277L76.3407 15.2422V27.0406H72.3047V8.48047Z" fill="#F3BA2F"/>
<path d="M101.165 8.34814H104.924L112.878 27.041H108.615L106.918 22.8778H99.0695L97.3722 27.041H93.209L101.165 8.34814ZM105.461 19.273L102.989 13.2522L100.529 19.273H105.461Z" fill="#F3BA2F"/>
<path d="M117.293 8.48047H121.058L129.755 19.9029V8.48047H133.785V27.0406H130.311L121.323 15.2422V27.0406H117.293V8.48047Z" fill="#F3BA2F"/>
<path d="M148.48 27.3671C147.178 27.3782 145.89 27.1266 144.687 26.6263C142.404 25.6836 140.596 23.8563 139.675 21.5619C139.194 20.3732 138.951 19.1043 138.959 17.8217V17.7691C138.937 15.2453 139.91 12.8098 141.666 10.9936C142.528 10.1062 143.565 9.40408 144.707 8.92584C145.951 8.41167 147.283 8.15458 148.629 8.17116C149.425 8.16564 150.219 8.23751 151.001 8.38402C151.67 8.51119 152.325 8.70746 152.953 8.96731C153.522 9.20781 154.067 9.50913 154.57 9.8685C155.062 10.2196 155.524 10.6094 155.952 11.0351L153.356 14.0317C152.693 13.4207 151.949 12.901 151.145 12.4919C150.354 12.1132 149.489 11.9252 148.613 11.939C147.139 11.9224 145.729 12.5417 144.742 13.6364C144.259 14.1754 143.88 14.8029 143.626 15.4802C143.36 16.1962 143.225 16.9564 143.23 17.7221V17.7747C143.228 18.5376 143.36 19.2979 143.626 20.0138C143.877 20.6939 144.253 21.3242 144.731 21.8687C145.71 22.9773 147.123 23.6075 148.602 23.5937C149.533 23.6241 150.456 23.4223 151.291 23.0104C152.087 22.5764 152.82 22.0429 153.478 21.4181L156.076 24.0443C155.618 24.5419 155.12 25.0036 154.592 25.4265C154.072 25.8384 153.508 26.1895 152.908 26.4742C152.27 26.7755 151.598 26.9967 150.907 27.1349C150.108 27.2952 149.295 27.3726 148.48 27.3671Z" fill="#F3BA2F"/>
<path d="M160.896 8.48047H174.865V12.1129H164.913V15.878H173.676V19.5104H164.927V23.4082H175.003V27.0406H160.905L160.896 8.48047Z" fill="#F3BA2F"/>
</svg>
