<svg width="126" height="54" viewBox="0 0 126 54" fill="none" xmlns="http://www.w3.org/2000/svg">
<path d="M23.7126 6.85629C25.167 4.98639 26.2058 2.4932 25.8942 0C23.7126 0.103883 21.1156 1.45436 19.5573 3.22038C18.2068 4.77863 16.9602 7.3757 17.2719 9.76502C19.7651 10.0767 22.1544 8.72619 23.7126 6.85629ZM25.8942 10.3883C22.3622 10.1805 19.3495 12.3621 17.6874 12.3621C16.0253 12.3621 13.4282 10.4922 10.6234 10.4922C6.98745 10.5961 3.66319 12.5699 1.79329 15.8941C-1.9465 22.4388 0.75446 32.0999 4.49425 37.3979C6.26027 39.995 8.44181 42.9037 11.2467 42.7999C13.9476 42.696 14.9865 41.0338 18.2068 41.0338C21.4272 41.0338 22.3622 42.7999 25.2709 42.696C28.1796 42.5921 30.0495 40.0989 31.8155 37.3979C33.8932 34.3853 34.7242 31.4766 34.7242 31.3727C34.6204 31.2688 29.0107 29.1912 29.0107 22.7504C28.9068 17.3485 33.3738 14.7514 33.5815 14.6475C31.1922 10.9077 27.2447 10.4922 25.8942 10.3883Z" fill="black"/>
<path d="M56.4389 3.01318C64.1263 3.01318 69.4243 8.31122 69.4243 15.8947C69.4243 23.582 64.0224 28.8801 56.2311 28.8801H47.8166V42.281H41.6875V3.01318H56.4389ZM47.8166 23.7898H54.7768C60.0748 23.7898 63.0874 20.8811 63.0874 15.9986C63.0874 11.0122 60.0748 8.20734 54.7768 8.20734H47.7127V23.7898H47.8166ZM70.9826 34.282C70.9826 29.2956 74.8262 26.1791 81.6825 25.7636L89.5776 25.3481V23.1665C89.5776 19.9461 87.3961 18.0762 83.8641 18.0762C80.4359 18.0762 78.3583 19.7384 77.8388 22.2316H72.2291C72.5408 17.0374 77.0078 13.1937 84.0718 13.1937C91.032 13.1937 95.499 16.8296 95.499 22.6471V42.3849H89.8893V37.7101H89.7854C88.1233 40.9305 84.4874 42.9043 80.7476 42.9043C74.9301 42.9043 70.9826 39.3723 70.9826 34.282ZM89.5776 31.6849V29.3995L82.5136 29.815C78.9816 30.0228 77.0078 31.581 77.0078 34.0742C77.0078 36.5674 79.0854 38.2296 82.2019 38.2296C86.3573 38.2296 89.5776 35.4247 89.5776 31.6849ZM100.693 52.981V48.2023C101.109 48.3062 102.147 48.3062 102.563 48.3062C105.264 48.3062 106.718 47.1635 107.653 44.2548C107.653 44.1509 108.173 42.4888 108.173 42.4888L97.7844 13.817H104.121L111.393 37.1907H111.497L118.769 13.817H125.002L114.302 44.047C111.809 51.0072 109.004 53.1887 103.082 53.1887C102.667 53.0849 101.213 53.0849 100.693 52.981Z" fill="black"/>
</svg>
