<svg width="158" height="43" viewBox="0 0 158 43" fill="none" xmlns="http://www.w3.org/2000/svg">
<path fill-rule="evenodd" clip-rule="evenodd" d="M33.1859 4.26123H8.96895C6.25347 4.26123 4.05228 6.46252 4.05228 9.17801C4.05228 11.8935 6.25347 14.0947 8.96895 14.0947H21.3161L1.44029 33.9707C-0.480098 35.8904 -0.480098 39.0036 1.44029 40.9239C3.36026 42.8439 6.4734 42.8439 8.39337 40.9239L28.2692 21.0481V33.3949C28.2692 36.1104 30.4705 38.3117 33.1859 38.3117C35.9014 38.3117 38.1026 36.1104 38.1026 33.3949V9.17801C38.1026 6.46252 35.9014 4.26123 33.1859 4.26123Z" fill="black"/>
<path fill-rule="evenodd" clip-rule="evenodd" d="M47.3387 38.1026H71.5556C74.2711 38.1026 76.4724 35.9014 76.4724 33.1859C76.4724 30.4705 74.2711 28.2692 71.5556 28.2692H59.2086L79.0844 8.39337C81.0047 6.4734 81.0047 3.36026 79.0844 1.44029C77.1643 -0.480098 74.0513 -0.480098 72.1313 1.44029L52.2553 21.3161V8.96895C52.2553 6.25347 50.0541 4.05228 47.3387 4.05228C44.6232 4.05228 42.4219 6.25347 42.4219 8.96895V33.1859C42.4219 35.9014 44.6232 38.1026 47.3387 38.1026Z" fill="#FF7900"/>
<path fill-rule="evenodd" clip-rule="evenodd" d="M98.0858 16.4154C100.855 16.4154 101.896 14.0337 101.896 11.6719C101.896 9.19096 100.855 6.80918 98.0858 6.80918C95.3171 6.80918 94.2762 9.19085 94.2762 11.6719C94.2762 14.0336 95.3171 16.4154 98.0858 16.4154ZM98.0858 4.18945C102.426 4.18945 104.978 7.46419 104.978 11.6719C104.978 15.7604 102.426 19.0351 98.0858 19.0351C93.746 19.0351 91.1932 15.7604 91.1932 11.6719C91.1932 7.46419 93.746 4.18945 98.0858 4.18945ZM106.039 8.7107H108.618V10.6279H108.656C109.153 9.32987 110.491 8.43107 111.809 8.43107C112 8.43107 112.229 8.47126 112.401 8.53117V11.167C112.153 11.1071 111.752 11.0672 111.427 11.0672C109.44 11.0672 108.752 12.5648 108.752 14.3823V19.0351H106.039V8.7107ZM120.7 13.8401C120.195 14.2487 119.142 14.2682 118.217 14.4238C117.291 14.5988 116.45 14.8907 116.45 15.9026C116.45 16.9338 117.312 17.1867 118.28 17.1867C120.615 17.1867 120.7 15.4745 120.7 14.8714V13.8401ZM113.798 11.7972C113.967 9.20951 116.471 8.43107 118.911 8.43107C121.078 8.43107 123.687 8.87846 123.687 11.2912V16.5254C123.687 17.4396 123.792 18.3539 124.066 18.7627H121.036C120.931 18.4514 120.847 18.1206 120.826 17.79C119.879 18.7043 118.491 19.0351 117.165 19.0351C115.103 19.0351 113.462 18.0818 113.462 16.0193C113.462 13.7428 115.314 13.198 117.165 12.9644C118.995 12.7115 120.7 12.7699 120.7 11.6413C120.7 10.4546 119.816 10.2795 118.764 10.2795C117.628 10.2795 116.892 10.7075 116.786 11.7972H113.798ZM125.126 8.7107H127.782V10.1486H127.842C128.55 8.99033 129.77 8.43107 130.951 8.43107C133.922 8.43107 134.67 10.1286 134.67 12.6848V19.0351H131.876V13.2041C131.876 11.5066 131.384 10.6678 130.085 10.6678C128.57 10.6678 127.92 11.5267 127.92 13.6233V19.0351H125.126L125.126 8.7107ZM143.544 13.8631C143.544 12.1478 142.944 10.6161 141.043 10.6161C139.389 10.6161 138.666 12.0458 138.666 13.6179C138.666 15.129 139.244 16.7831 141.043 16.7831C142.717 16.7831 143.544 15.374 143.544 13.8631ZM146.334 18.6005C146.334 20.3362 145.714 23.2767 140.794 23.2767C138.686 23.2767 136.227 22.2964 136.082 19.8869H138.996C139.265 20.9691 140.154 21.3368 141.187 21.3368C142.82 21.3368 143.564 20.2341 143.544 18.7229V17.3345H143.502C142.862 18.4372 141.58 18.9683 140.298 18.9683C137.095 18.9683 135.73 16.5585 135.73 13.6589C135.73 10.9224 137.322 8.43118 140.319 8.43118C141.725 8.43118 142.8 8.90094 143.502 10.1262H143.544V8.71696H146.334V18.6005ZM155.063 12.6532C154.796 11.2522 154.159 10.5131 152.74 10.5131C150.89 10.5131 150.355 11.8749 150.314 12.6532H155.063ZM150.314 14.4042C150.396 16.1554 151.301 16.9531 152.925 16.9531C154.097 16.9531 155.043 16.2719 155.227 15.6494H157.798C156.975 18.0234 155.227 19.0351 152.822 19.0351C149.471 19.0351 147.395 16.856 147.395 13.7426C147.395 10.7271 149.595 8.43107 152.822 8.43107C156.441 8.43107 158.188 11.3105 157.982 14.4043L150.314 14.4042ZM98.1585 33.486H98.1998L101.468 23.2767H106.039V38.1224H102.998V27.6014H102.957L99.3372 38.1224H96.8346L93.215 27.7053H93.1734V38.1224H90.1328V23.2767H94.7042L98.1585 33.486ZM113.452 36.0405C115.374 36.0405 115.949 34.4255 115.949 32.83C115.949 31.215 115.374 29.6002 113.452 29.6002C111.549 29.6002 110.974 31.215 110.974 32.83C110.974 34.4255 111.549 36.0405 113.452 36.0405ZM113.452 27.5184C116.682 27.5184 118.764 29.6199 118.764 32.83C118.764 36.0209 116.682 38.1224 113.452 38.1224C110.241 38.1224 108.16 36.0209 108.16 32.83C108.16 29.6199 110.241 27.5184 113.452 27.5184ZM119.824 27.798H122.48V29.2359H122.54C123.248 28.0779 124.468 27.5184 125.649 27.5184C128.62 27.5184 129.368 29.2158 129.368 31.7722V38.1224H126.573V32.2912C126.573 30.5938 126.082 29.7553 124.783 29.7553C123.268 29.7553 122.618 30.6139 122.618 32.7106V38.1224H119.824L119.824 27.798ZM138.097 31.7406C137.83 30.3396 137.192 29.6002 135.773 29.6002C133.923 29.6002 133.389 30.9624 133.348 31.7406H138.097ZM133.348 33.4917C133.43 35.2424 134.334 36.0405 135.959 36.0405C137.13 36.0405 138.076 35.3593 138.261 34.7367H140.831C140.009 37.1103 138.261 38.1224 135.856 38.1224C132.505 38.1224 130.428 35.9429 130.428 32.8298C130.428 29.8145 132.628 27.5184 135.856 27.5184C139.474 27.5184 141.222 30.398 141.016 33.4916L133.348 33.4917ZM147.323 38.9961C146.704 40.6327 145.725 41.3036 143.768 41.3036C143.189 41.3036 142.61 41.2639 142.031 41.2048V38.8974C142.57 38.9369 143.129 39.0159 143.688 38.9961C144.667 38.8974 144.986 37.8918 144.667 37.0832L141.032 27.5184H144.068L146.404 34.4997H146.444L148.701 27.5184H151.636L147.323 38.9961Z" fill="black"/>
</svg>
