<svg width="131" height="60" viewBox="0 0 131 60" fill="none" xmlns="http://www.w3.org/2000/svg">
<path d="M109.513 51.3753C108.583 50.7408 107.568 50.3178 106.552 49.7679C105.918 49.4295 105.241 49.0911 104.691 48.6258C103.761 47.8644 103.93 46.3417 104.945 45.6649C106.341 44.7343 108.667 45.2419 108.921 47.1453C108.921 47.1876 108.964 47.2299 109.006 47.2299H111.121C111.163 47.2299 111.205 47.1876 111.205 47.1453C111.078 45.8341 110.571 44.7343 109.64 44.0152C108.752 43.3384 107.737 43 106.637 43C101.054 43 100.546 48.9219 103.549 50.7831C103.888 50.9946 106.849 52.4751 107.906 53.1519C108.964 53.7864 109.26 54.9707 108.837 55.9013C108.414 56.7473 107.356 57.3395 106.299 57.2549C105.114 57.1703 104.226 56.5358 103.888 55.5629C103.845 55.3937 103.803 55.0553 103.803 54.8861C103.803 54.8438 103.761 54.8015 103.718 54.8015H101.434C101.392 54.8015 101.35 54.8438 101.35 54.8861C101.35 56.5358 101.773 57.4664 102.872 58.3124C103.93 59.1161 105.072 59.4545 106.299 59.4545C109.429 59.4545 111.036 57.6779 111.375 55.859C111.628 54.0825 111.121 52.4751 109.513 51.3753Z" fill="#161616"/>
<path d="M9.81348 43.3379H8.79829H7.6985C7.6562 43.3379 7.6139 43.3802 7.6139 43.3802L5.71042 49.5982C5.66813 49.6828 5.58353 49.6828 5.54123 49.5982L3.63775 43.3802C3.63775 43.3379 3.59546 43.3379 3.55316 43.3379H2.45337H1.43818H0.0846041C0.0423046 43.3379 0 43.3802 0 43.4225V59.2848C0 59.3271 0.0423046 59.3694 0.0846041 59.3694H2.36877C2.41107 59.3694 2.45337 59.3271 2.45337 59.2848V47.2294C2.45337 47.1448 2.58027 47.1025 2.62257 47.1871L4.52605 53.4475L4.65294 53.8704C4.65294 53.9127 4.69524 53.9128 4.73754 53.9128H6.51412C6.55642 53.9128 6.59872 53.8704 6.59872 53.8704L6.72562 53.4475L8.62909 47.1871C8.67139 47.1025 8.79829 47.1025 8.79829 47.2294V59.2848C8.79829 59.3271 8.84058 59.3694 8.88288 59.3694H11.1671C11.2094 59.3694 11.2517 59.3271 11.2517 59.2848V43.4225C11.2517 43.3802 11.2094 43.3379 11.1671 43.3379H9.81348Z" fill="#161616"/>
<path d="M74.3619 43.3379C74.3196 43.3379 74.2773 43.3802 74.2773 43.3802L72.3738 49.5982C72.3315 49.6828 72.2469 49.6828 72.2046 49.5982L70.3012 43.3802C70.3012 43.3379 70.2588 43.3379 70.2165 43.3379H66.7057C66.6634 43.3379 66.6211 43.3802 66.6211 43.4225V59.2848C66.6211 59.3271 66.6634 59.3694 66.7057 59.3694H68.9899C69.0322 59.3694 69.0745 59.3271 69.0745 59.2848V47.2294C69.0745 47.1448 69.2014 47.1025 69.2437 47.1871L71.1471 53.4475L71.274 53.8704C71.274 53.9127 71.3163 53.9128 71.3586 53.9128H73.1352C73.1775 53.9128 73.2198 53.8704 73.2198 53.8704L73.3467 53.4475L75.2502 47.1871C75.2925 47.1025 75.4194 47.1025 75.4194 47.2294V59.2848C75.4194 59.3271 75.4617 59.3694 75.504 59.3694H77.7881C77.8304 59.3694 77.8727 59.3271 77.8727 59.2848V43.4225C77.8727 43.3802 77.8304 43.3379 77.7881 43.3379H74.3619Z" fill="#161616"/>
<path d="M44.7524 43.3379H40.4802H38.196H33.8815C33.8392 43.3379 33.7969 43.3802 33.7969 43.4225V45.4106C33.7969 45.4529 33.8392 45.4952 33.8815 45.4952H38.0691V59.2848C38.0691 59.3271 38.1114 59.3694 38.1537 59.3694H40.4379C40.4802 59.3694 40.5225 59.3271 40.5225 59.2848V45.4952H44.7101C44.7524 45.4952 44.7947 45.4529 44.7947 45.4106V43.4225C44.837 43.3802 44.7947 43.3379 44.7524 43.3379Z" fill="#161616"/>
<path d="M58.2888 59.3697H60.3615C60.4038 59.3697 60.4461 59.3274 60.4461 59.2428L56.1315 43.3382C56.1315 43.2959 56.0892 43.2959 56.0469 43.2959H55.2432H53.8474H53.0437C53.0014 43.2959 52.9591 43.3382 52.9591 43.3382L48.6445 59.2428C48.6445 59.2851 48.6868 59.3697 48.7291 59.3697H50.8018C50.8441 59.3697 50.8864 59.3274 50.8864 59.3274L52.1554 54.6744C52.1554 54.6321 52.1977 54.6322 52.24 54.6322H56.8506C56.8929 54.6322 56.9352 54.6744 56.9352 54.6744L58.2042 59.3274C58.2042 59.3274 58.2465 59.3697 58.2888 59.3697ZM52.7899 52.348L54.4819 46.13C54.5242 46.0454 54.6088 46.0454 54.6511 46.13L56.343 52.348C56.343 52.3903 56.3007 52.4749 56.2584 52.4749H52.9168C52.8322 52.4749 52.7899 52.3903 52.7899 52.348Z" fill="#161616"/>
<path d="M93.904 59.3697H95.9767C96.019 59.3697 96.0613 59.3274 96.0613 59.2428L91.7468 43.3382C91.7468 43.2959 91.7045 43.2959 91.6622 43.2959H90.8585H89.4626H88.6589C88.6166 43.2959 88.5743 43.3382 88.5743 43.3382L84.2598 59.2428C84.2598 59.2851 84.3021 59.3697 84.3444 59.3697H86.417C86.4593 59.3697 86.5016 59.3274 86.5016 59.3274L87.7706 54.6744C87.7706 54.6321 87.8129 54.6322 87.8552 54.6322H92.4659C92.5082 54.6322 92.5505 54.6744 92.5505 54.6744L93.8194 59.3274C93.8194 59.3274 93.8617 59.3697 93.904 59.3697ZM88.4051 52.348L90.0971 46.13C90.1394 46.0454 90.224 46.0454 90.2663 46.13L91.9583 52.348C91.9583 52.3903 91.916 52.4749 91.8737 52.4749H88.532C88.4474 52.4749 88.4051 52.3903 88.4051 52.348Z" fill="#161616"/>
<path d="M20.5588 57.0006V52.0939C20.5588 52.0516 20.6011 52.0093 20.6434 52.0093H26.7769C26.8192 52.0093 26.8615 51.967 26.8615 51.9247V49.9366C26.8615 49.8943 26.8192 49.852 26.7769 49.852H20.6434C20.6011 49.852 20.5588 49.8097 20.5588 49.7674V45.5798C20.5588 45.5375 20.6011 45.4952 20.6434 45.4952H27.5805C27.6228 45.4952 27.6651 45.4529 27.6651 45.4106V43.4225C27.6651 43.3802 27.6228 43.3379 27.5805 43.3379H20.5588H18.1901C18.1478 43.3379 18.1055 43.3802 18.1055 43.4225V45.4952V49.8943V52.0516V57.1275V59.2848C18.1055 59.3271 18.1478 59.3694 18.1901 59.3694H20.5588H27.8766C27.9189 59.3694 27.9612 59.3271 27.9612 59.2848V57.2121C27.9612 57.1698 27.9189 57.1275 27.8766 57.1275H20.6011C20.6011 57.0852 20.5588 57.0429 20.5588 57.0006Z" fill="#161616"/>
<path d="M130.493 59.2005L122.541 50.9944C122.499 50.9521 122.499 50.9098 122.541 50.8675L129.69 43.4228C129.732 43.3805 129.69 43.2959 129.647 43.2959H126.729C126.686 43.2959 126.686 43.2959 126.686 43.3382L120.595 49.6831C120.553 49.7254 120.468 49.6831 120.468 49.6408V43.4651C120.468 43.4228 120.426 43.3805 120.384 43.3805H118.057C118.015 43.3805 117.973 43.4228 117.973 43.4651V59.3274C117.973 59.3697 118.015 59.412 118.057 59.412H120.341C120.384 59.412 120.426 59.3697 120.426 59.3274V52.348C120.426 52.2634 120.511 52.2211 120.553 52.3057L127.405 59.412L127.448 59.4543H130.366C130.493 59.3697 130.536 59.2428 130.493 59.2005Z" fill="#161616"/>
<path d="M78.798 1L64.9238 11.3211L67.5041 5.22994L78.798 1Z" fill="#E17726" stroke="#E17726" stroke-linecap="round" stroke-linejoin="round"/>
<path d="M46.7363 1L60.5259 11.4057L58.0726 5.22994L46.7363 1Z" fill="#E27625" stroke="#E27625" stroke-linecap="round" stroke-linejoin="round"/>
<path d="M73.8063 24.8994L70.084 30.5675L78.0363 32.7671L80.2782 25.0263L73.8063 24.8994Z" fill="#E27625" stroke="#E27625" stroke-linecap="round" stroke-linejoin="round"/>
<path d="M45.2969 25.0263L47.5387 32.7671L55.4487 30.5675L51.7687 24.8994L45.2969 25.0263Z" fill="#E27625" stroke="#E27625" stroke-linecap="round" stroke-linejoin="round"/>
<path d="M55.0257 15.3394L52.8262 18.6811L60.6516 19.0195L60.3978 10.5596L55.0257 15.3394Z" fill="#E27625" stroke="#E27625" stroke-linecap="round" stroke-linejoin="round"/>
<path d="M70.5516 15.3395L65.095 10.4751L64.9258 19.0196L72.7512 18.6812L70.5516 15.3395Z" fill="#E27625" stroke="#E27625" stroke-linecap="round" stroke-linejoin="round"/>
<path d="M55.4492 30.5673L60.1868 28.2831L56.0837 25.0684L55.4492 30.5673Z" fill="#E27625" stroke="#E27625" stroke-linecap="round" stroke-linejoin="round"/>
<path d="M65.3887 28.2831L70.0839 30.5673L69.4494 25.0684L65.3887 28.2831Z" fill="#E27625" stroke="#E27625" stroke-linecap="round" stroke-linejoin="round"/>
<path d="M70.082 30.5674L65.3867 28.2832L65.7674 31.3288L65.7251 32.64L70.082 30.5674Z" fill="#D5BFB2" stroke="#D5BFB2" stroke-linecap="round" stroke-linejoin="round"/>
<path d="M55.4473 30.5674L59.8464 32.64L59.8041 31.3288L60.1848 28.2832L55.4473 30.5674Z" fill="#D5BFB2" stroke="#D5BFB2" stroke-linecap="round" stroke-linejoin="round"/>
<path d="M59.9319 23.038L55.998 21.8959L58.7475 20.627L59.9319 23.038Z" fill="#233447" stroke="#233447" stroke-linecap="round" stroke-linejoin="round"/>
<path d="M65.6426 23.038L66.7847 20.627L69.5764 21.8959L65.6426 23.038Z" fill="#233447" stroke="#233447" stroke-linecap="round" stroke-linejoin="round"/>
<path d="M55.4476 30.5675L56.1244 24.8994L51.7676 25.0263L55.4476 30.5675Z" fill="#CC6228" stroke="#CC6228" stroke-linecap="round" stroke-linejoin="round"/>
<path d="M69.4492 24.8994L70.0837 30.5675L73.8061 25.0263L69.4492 24.8994Z" fill="#CC6228" stroke="#CC6228" stroke-linecap="round" stroke-linejoin="round"/>
<path d="M72.7492 18.6812L64.9238 19.0195L65.6429 23.038L66.785 20.6269L69.5768 21.8959L72.7492 18.6812Z" fill="#CC6228" stroke="#CC6228" stroke-linecap="round" stroke-linejoin="round"/>
<path d="M55.9967 21.8959L58.7461 20.6269L59.9305 23.038L60.6496 19.0195L52.8242 18.6812L55.9967 21.8959Z" fill="#CC6228" stroke="#CC6228" stroke-linecap="round" stroke-linejoin="round"/>
<path d="M52.8242 18.6812L56.0813 25.0684L55.9967 21.8959L52.8242 18.6812Z" fill="#E27525" stroke="#E27525" stroke-linecap="round" stroke-linejoin="round"/>
<path d="M69.5742 21.8959L69.4473 25.0684L72.7466 18.6812L69.5742 21.8959Z" fill="#E27525" stroke="#E27525" stroke-linecap="round" stroke-linejoin="round"/>
<path d="M60.6507 19.0195L59.9316 23.038L60.8199 27.8178L61.0314 21.5152L60.6507 19.0195Z" fill="#E27525" stroke="#E27525" stroke-linecap="round" stroke-linejoin="round"/>
<path d="M64.9217 19.0195L64.541 21.5152L64.7102 27.8178L65.6408 23.038L64.9217 19.0195Z" fill="#E27525" stroke="#E27525" stroke-linecap="round" stroke-linejoin="round"/>
<path d="M65.6435 23.0381L64.7129 27.8179L65.3897 28.2832L69.4504 25.0685L69.5773 21.896L65.6435 23.0381Z" fill="#F5841F" stroke="#F5841F" stroke-linecap="round" stroke-linejoin="round"/>
<path d="M55.998 21.896L56.0826 25.0685L60.1857 28.2832L60.8202 27.8179L59.9319 23.0381L55.998 21.896Z" fill="#F5841F" stroke="#F5841F" stroke-linecap="round" stroke-linejoin="round"/>
<path d="M65.726 32.6401L65.7683 31.3288L65.3876 31.0327H60.1425L59.8041 31.3288L59.8464 32.6401L55.4473 30.5674L56.97 31.8364L60.1002 33.9936H65.4299L68.5601 31.8364L70.0829 30.5674L65.726 32.6401Z" fill="#C0AC9D" stroke="#C0AC9D" stroke-linecap="round" stroke-linejoin="round"/>
<path d="M65.3882 28.2832L64.7114 27.8179H60.8199L60.1854 28.2832L59.8047 31.3287L60.1431 31.0326H65.3882L65.7689 31.3287L65.3882 28.2832Z" fill="#161616" stroke="#161616" stroke-linecap="round" stroke-linejoin="round"/>
<path d="M79.3898 11.9979L80.5742 6.28743L78.7976 1L65.3887 10.9827L70.5492 15.3395L77.8247 17.4545L79.4321 15.5933L78.7553 15.0857L79.8551 14.0705L79.0091 13.3937L80.1089 12.5477L79.3898 11.9979Z" fill="#763E1A" stroke="#763E1A" stroke-linecap="round" stroke-linejoin="round"/>
<path d="M45 6.28743L46.1844 11.9979L45.423 12.5477L46.5228 13.3937L45.6768 14.0705L46.8189 15.0857L46.0998 15.5933L47.7072 17.4545L55.025 15.3395L60.1855 10.9827L46.7343 1L45 6.28743Z" fill="#763E1A" stroke="#763E1A" stroke-linecap="round" stroke-linejoin="round"/>
<path d="M77.8245 17.4548L70.549 15.3398L72.7486 18.6815L69.4492 25.0687L73.8061 25.0264H80.2779L77.8245 17.4548Z" fill="#F5841F" stroke="#F5841F" stroke-linecap="round" stroke-linejoin="round"/>
<path d="M55.0238 15.3398L47.706 17.4548L45.2949 25.0264H51.7667L56.0813 25.0687L52.8242 18.6815L55.0238 15.3398Z" fill="#F5841F" stroke="#F5841F" stroke-linecap="round" stroke-linejoin="round"/>
<path d="M64.9228 19.0196L65.3881 10.9827L67.5031 5.22998H58.0703L60.1853 10.9827L60.6506 19.0196L60.8198 21.5576V27.8179H64.7113V21.5576L64.9228 19.0196Z" fill="#F5841F" stroke="#F5841F" stroke-linecap="round" stroke-linejoin="round"/>
</svg>
