<svg width="167" height="41" viewBox="0 0 167 41" fill="none" xmlns="http://www.w3.org/2000/svg">
<path fill-rule="evenodd" clip-rule="evenodd" d="M34.2523 6.32666L34.4628 7.64203C34.6206 8.85218 34.6996 10.0623 34.6733 11.2988C34.6733 14.0084 34.3576 16.6918 33.7262 19.3226C32.8843 22.8741 31.4111 26.2677 29.3854 29.3194C27.0441 32.792 23.6504 36.1856 18.7309 38.9742L18.1258 39.3162L17.5208 38.9742C12.6013 36.2383 9.20762 32.8183 6.86625 29.3194C4.81427 26.2677 3.36736 22.9004 2.52552 19.3226C1.89414 16.6918 1.57845 14.0084 1.57845 11.2988C1.57845 10.0886 1.63106 8.85218 1.78891 7.64203L1.97306 6.32666C1.99937 6.22143 1.99937 6.1162 1.97306 6.01097C1.94675 5.90574 1.92045 5.80051 1.84152 5.72159C1.78891 5.64267 1.70999 5.56375 1.63106 5.51113C1.55214 5.45852 1.44691 5.43221 1.36799 5.4059C1.26276 5.37959 1.15753 5.37959 1.0523 5.4059C0.947069 5.43221 0.84184 5.48482 0.762917 5.53744C0.683995 5.59005 0.605072 5.66897 0.552457 5.7479C0.499842 5.85313 0.473534 5.95836 0.447226 6.06359L0.236768 7.37896C0.0789228 8.66803 0 9.9834 0 11.2988C0 14.14 0.341998 16.9549 0.999685 19.7172C1.44691 21.585 2.05198 23.4265 2.8149 25.1891C3.57782 26.9517 4.49858 28.6354 5.57718 30.2402C8.05009 33.9232 11.6279 37.5273 16.7842 40.3685L17.7575 40.921C17.8891 40.9736 18.0206 40.9999 18.1522 40.9999C18.2837 40.9999 18.4152 40.9736 18.5468 40.921L19.5201 40.3685C24.6501 37.501 28.2542 33.8969 30.7271 30.2402C32.8843 27.0306 34.4365 23.4528 35.3046 19.7172C35.9623 16.9549 36.278 14.14 36.278 11.2988C36.278 9.9834 36.1991 8.66803 36.0412 7.35265L35.8308 6.03728C35.8045 5.93205 35.7782 5.82682 35.7256 5.72159C35.6729 5.64267 35.594 5.56375 35.5151 5.51113C35.4362 5.45852 35.3309 5.4059 35.2257 5.37959C35.1205 5.35329 35.0152 5.35329 34.91 5.37959C34.8048 5.4059 34.6996 5.43221 34.5943 5.48482C34.5154 5.53744 34.4365 5.61636 34.3839 5.69528C34.3313 5.77421 34.2786 5.87943 34.2523 5.98466V6.32666Z" fill="black"/>
<path fill-rule="evenodd" clip-rule="evenodd" d="M6.39422 5.43249L18.18 1.72314L30.2025 5.51142C30.3077 5.53772 30.4129 5.53772 30.5182 5.53772C30.6234 5.53772 30.7286 5.51141 30.8339 5.4588C30.9391 5.40618 31.018 5.35357 31.0969 5.24834C31.1759 5.16942 31.2285 5.06419 31.2285 4.95896C31.2548 4.85373 31.2548 4.7485 31.2548 4.64327C31.2548 4.53804 31.2285 4.43281 31.1759 4.32758C31.1232 4.22235 31.0706 4.14343 30.9917 4.06451C30.9128 3.98558 30.8076 3.93297 30.7023 3.93297L18.4167 0.0394612C18.2589 -0.0131537 18.101 -0.0131537 17.9432 0.0394612L5.94699 3.82774C5.84176 3.85404 5.76284 3.90666 5.65761 3.95927C5.57868 4.0382 5.49976 4.11712 5.47345 4.22235C5.42084 4.32758 5.39453 4.43281 5.39453 4.53804C5.39453 4.64327 5.39453 4.7485 5.42084 4.85373C5.44715 4.95896 5.49976 5.06419 5.55238 5.14311C5.60499 5.22203 5.71022 5.30095 5.81545 5.35357C5.89437 5.40618 5.9996 5.43249 6.13114 5.43249C6.18376 5.4588 6.28899 5.4588 6.39422 5.43249Z" fill="black"/>
<path fill-rule="evenodd" clip-rule="evenodd" d="M0.579016 6.56379L17.4421 40.553C17.4947 40.6846 17.6 40.7898 17.7052 40.8687C17.9683 41.0266 18.2839 41.0266 18.547 40.8687C18.6786 40.7898 18.7838 40.6846 18.8627 40.553L29.1489 20.6909L29.1752 20.6646L35.7521 6.53748C35.8047 6.43225 35.831 6.32702 35.831 6.22179C35.831 6.11656 35.831 6.01134 35.7784 5.90611C35.7521 5.80088 35.6995 5.69564 35.6206 5.61672C35.568 5.5378 35.4627 5.45888 35.3838 5.40626C35.3049 5.35365 35.1997 5.32734 35.0681 5.32734C34.9629 5.32734 34.8577 5.32734 34.7524 5.35365C34.6472 5.37995 34.542 5.43257 34.463 5.51149C34.3841 5.59042 34.3052 5.66934 34.2789 5.77457L27.702 19.9017L18.1261 38.3958L1.97331 5.77457C1.9207 5.69565 1.84178 5.59042 1.78916 5.51149C1.71024 5.43257 1.60501 5.37995 1.49978 5.35365C1.39455 5.30103 1.28932 5.30103 1.18409 5.32734C1.07886 5.32734 0.97363 5.35365 0.8684 5.40626C0.789477 5.45888 0.684247 5.5378 0.631632 5.61672C0.579017 5.69564 0.526402 5.80088 0.500095 5.90611C0.473787 6.01134 0.44748 6.11656 0.473788 6.22179C0.500095 6.35333 0.526401 6.45856 0.579016 6.56379Z" fill="black"/>
<path fill-rule="evenodd" clip-rule="evenodd" d="M8.65426 21.7169H27.4378C27.543 21.7169 27.6483 21.6906 27.7535 21.6643C27.8587 21.638 27.9376 21.559 27.9903 21.4801C28.0692 21.4012 28.1218 21.3223 28.1481 21.217C28.227 21.0066 28.227 20.7961 28.1481 20.5857C28.1218 20.4804 28.0429 20.4015 27.9903 20.3226C27.9113 20.2437 27.8324 20.191 27.7535 20.1384C27.6483 20.1121 27.543 20.0858 27.4378 20.0858H8.65426C8.54903 20.0858 8.4438 20.1121 8.33857 20.1384C8.23334 20.1647 8.15442 20.2437 8.1018 20.3226C8.02288 20.4015 7.97026 20.4804 7.94396 20.5857C7.86504 20.7961 7.86504 21.0066 7.94396 21.217C7.97026 21.3223 8.02288 21.4012 8.1018 21.4801C8.18073 21.559 8.25965 21.6116 8.33857 21.6643C8.4438 21.6906 8.54903 21.6906 8.65426 21.7169ZM61.0061 14.6402H48.7995C48.6942 14.6402 48.589 14.6665 48.4838 14.6928C48.3785 14.7191 48.2996 14.798 48.247 14.8769C48.1681 14.9559 48.1155 15.0348 48.0892 15.14C48.0629 15.2452 48.0366 15.3505 48.0366 15.4557V25.5841C48.0366 25.6893 48.0629 25.7945 48.0892 25.8998C48.1155 26.005 48.1681 26.0839 48.247 26.1628C48.3259 26.2418 48.4049 26.2944 48.4838 26.347C48.589 26.3733 48.6942 26.3996 48.7995 26.3996H61.0061V28.1096H48.7995C48.6416 28.1096 48.4838 28.0833 48.3259 28.057C48.1681 28.0307 48.0102 27.9781 47.8524 27.9254C47.6946 27.8728 47.563 27.7939 47.4315 27.715C47.2999 27.6098 47.1947 27.5045 47.0632 27.3993C46.8264 27.1625 46.6686 26.8994 46.537 26.6101C46.4844 26.4522 46.4318 26.2944 46.4055 26.1365C46.3792 25.9787 46.3529 25.8208 46.3529 25.663V15.482C46.3529 15.3242 46.3792 15.1663 46.4055 15.0085C46.4318 14.8506 46.4844 14.6928 46.537 14.5349C46.5896 14.3771 46.6686 14.2192 46.7475 14.0877C46.8264 13.9562 46.9316 13.8246 47.0632 13.7194C47.1684 13.6142 47.2999 13.5089 47.4315 13.4037C47.563 13.3248 47.6946 13.2459 47.8524 13.1933C48.0102 13.1406 48.1681 13.088 48.3259 13.0617C48.4838 13.0354 48.6416 13.0091 48.7995 13.0091H61.0061V14.6402ZM83.9199 12.9302V14.6402H72.1605V19.6649H81.6049V21.4012H72.1605V26.4259H83.9199V28.1359H70.5294V12.9302H83.9199Z" fill="black"/>
<path d="M108.15 15.5079V19.9538C108.15 20.1117 108.124 20.2695 108.098 20.4274C108.071 20.5852 108.019 20.7431 107.966 20.9009C107.914 21.0588 107.835 21.2166 107.756 21.3481C107.65 21.4797 107.572 21.6112 107.44 21.7164C107.335 21.8217 107.203 21.9269 107.072 22.0321C106.94 22.1111 106.809 22.19 106.651 22.2426C106.493 22.2952 106.335 22.3478 106.177 22.4004C106.019 22.4267 105.862 22.4531 105.704 22.4531H103.468L108.071 28.1092H105.862L101.284 22.4531H95.9173C95.6542 22.4531 95.3912 22.4268 95.1281 22.3741V28.1092H93.4707V12.9561H105.73C105.888 12.9561 106.046 12.9824 106.204 13.0087C106.361 13.035 106.519 13.0876 106.677 13.1402C106.835 13.1928 106.966 13.2717 107.098 13.377C107.361 13.5611 107.572 13.7979 107.756 14.061C107.835 14.1925 107.914 14.3503 107.966 14.5082C108.019 14.666 108.071 14.8239 108.098 14.9817C108.124 15.1659 108.15 15.35 108.15 15.5079ZM95.891 20.7694H105.704C105.809 20.7694 105.914 20.7431 106.019 20.7168C106.125 20.6905 106.204 20.6378 106.256 20.5326C106.335 20.4537 106.388 20.3748 106.414 20.2695C106.44 20.1643 106.467 20.0591 106.467 19.9538V15.5079C106.467 15.2974 106.388 15.087 106.256 14.9291C106.125 14.7713 105.914 14.666 105.704 14.666H95.891C95.7858 14.666 95.6805 14.6924 95.5753 14.7187C95.4701 14.745 95.3912 14.8239 95.3385 14.9028C95.2596 14.9817 95.207 15.0607 95.1807 15.1659C95.1544 15.2711 95.1281 15.3763 95.1281 15.4816V19.9275C95.1281 20.138 95.207 20.3485 95.3912 20.5063C95.4964 20.6641 95.7068 20.7694 95.891 20.7694Z" fill="black"/>
<path fill-rule="evenodd" clip-rule="evenodd" d="M116.938 12.9302H131.617V14.6402H125.119V28.1096H123.462V14.6402H116.938V12.9302ZM140.562 28.1359V12.9565H142.219V28.1359H140.562ZM164.291 12.9302H166.422L160.292 20.533L166.448 28.1359H164.291L158.819 21.4012H154.084V28.1359H152.426V12.9565H154.11V19.6912H158.845L164.291 12.9302Z" fill="black"/>
</svg>
