<svg width="169" height="46" viewBox="0 0 169 46" fill="none" xmlns="http://www.w3.org/2000/svg">
<path d="M47.1562 5.52344H54.9308C56.9063 5.52344 58.3507 6.05449 59.2853 6.96789C60.1987 7.75383 60.6023 8.81593 60.6023 9.85678C60.6023 10.2604 60.6023 10.7702 60.4749 11.1738C60.22 11.8323 59.8164 12.4908 59.2853 13.0218C59.0304 13.2767 58.7543 13.4254 58.4994 13.5529C59.4128 13.8078 60.22 14.3388 60.8785 14.9973C61.4095 15.6558 61.6644 16.4417 61.6644 17.6313C61.6644 18.2898 61.537 19.0757 61.2608 19.6068C61.0059 20.1378 60.4749 20.6689 59.9438 21.0512C59.2853 21.4548 58.6268 21.7097 57.9683 21.9646C57.1824 22.2195 56.2478 22.2195 55.3344 22.2195H47.2837V5.48096H47.1562V5.52344ZM54.2723 12.3633C54.9308 12.3633 55.5893 12.2359 56.2478 11.9597C56.7788 11.7048 57.0337 11.1738 57.0337 10.6427C57.0337 10.1117 56.7788 9.58063 56.3752 9.32573C55.8442 8.92213 55.1857 8.79468 54.5272 8.92214H50.8311V12.4695H54.251V12.3633H54.2723ZM55.1857 19.097C55.8442 19.097 56.5027 18.9695 57.1612 18.6934C57.6922 18.4385 57.9471 17.9074 57.8197 17.2489C57.8197 16.7179 57.5647 16.1868 57.1612 15.9319C56.7576 15.677 55.9716 15.4009 55.0582 15.4009H50.7036V19.097H55.1857Z" fill="#F3BA2F"/>
<path d="M66.252 5.52295H69.948V22.389H66.252V5.52295Z" fill="#F3BA2F"/>
<path d="M75.6211 5.52295H79.041L86.943 15.9314V5.52295H90.6178V22.389H87.474L79.1685 11.7043V22.389H75.6211V5.52295Z" fill="#F3BA2F"/>
<path d="M101.833 5.39551H105.253L112.497 22.389H108.673L107.101 18.5654H99.9853L98.4134 22.389H94.5898L101.833 5.39551ZM105.784 15.4004L103.554 9.87754L101.324 15.4004H105.784Z" fill="#F3BA2F"/>
<path d="M116.447 5.52295H119.867L127.769 15.9314V5.52295H131.465V22.389H128.3L120.122 11.7043V22.389H116.447V5.52295Z" fill="#F3BA2F"/>
<path d="M144.891 22.6439C143.701 22.6439 142.512 22.389 141.471 21.9854C139.368 21.072 137.775 19.4788 136.862 17.3759C136.458 16.3138 136.203 15.1455 136.203 13.956C136.203 11.7256 137.117 9.47395 138.71 7.77461C139.496 6.98866 140.43 6.33016 141.471 5.92656C142.661 5.39552 143.85 5.26807 145.018 5.26807C145.677 5.26807 146.463 5.26807 147.121 5.39552C147.78 5.52297 148.311 5.65042 148.842 5.92656C149.373 6.18147 149.904 6.45761 150.286 6.71251C150.69 6.96742 151.2 7.37101 151.603 7.77461L149.373 10.536C148.715 10.005 148.056 9.47395 147.398 9.0916C146.739 8.70924 145.953 8.56055 145.167 8.56055C144.509 8.56055 143.85 8.688 143.192 8.96414C142.533 9.21905 142.002 9.62264 141.62 10.1537C141.237 10.6847 140.834 11.2158 140.558 11.8743C140.303 12.5328 140.154 13.1913 140.154 13.8498C140.154 14.5083 140.282 15.2942 140.558 15.9527C140.834 16.6112 141.089 17.1422 141.62 17.6733C142.533 18.7354 143.85 19.2452 145.167 19.2452C145.953 19.2452 146.888 19.1177 147.674 18.7141C148.332 18.3106 149.118 17.8007 149.649 17.2697L152.007 19.6275C151.603 20.0311 151.094 20.5409 150.69 20.9445C150.159 21.3481 149.628 21.603 149.118 21.8579C148.587 22.1128 147.929 22.389 147.27 22.5164C146.335 22.6439 145.55 22.6439 144.891 22.6439Z" fill="#F3BA2F"/>
<path d="M156.234 5.52295H168.873V8.81543H159.782V12.2354H167.811V15.5279H159.782V19.0965H169.001V22.389H156.234V5.52295Z" fill="#F3BA2F"/>
<path d="M51.8939 38.9792C50.9805 38.9792 50.0459 38.8517 49.2599 38.4481C48.474 38.1932 47.688 37.6622 46.8809 37.0037L48.1978 35.5592C48.7289 36.0903 49.2599 36.3452 49.9184 36.7488C50.5769 37.0037 51.2354 37.1524 51.8939 37.1524C52.425 37.1524 52.956 37.0249 53.4658 36.7488C53.8694 36.4939 53.9969 36.0903 53.9969 35.6867C53.9969 35.5592 53.9969 35.2831 53.8694 35.1557C53.742 35.0282 53.6145 34.7521 53.4658 34.6246C53.2109 34.4972 52.9348 34.3697 52.6799 34.221C52.2763 34.0936 51.7665 33.9661 51.3629 33.8174C50.8318 33.69 50.1733 33.5625 49.6423 33.2864C49.2387 33.1589 48.7289 32.8828 48.4528 32.6279C48.1979 32.373 47.9217 32.0968 47.6668 31.7145C47.4119 31.1834 47.4119 30.6524 47.4119 30.27C47.4119 29.739 47.5394 29.3566 47.6668 28.8256C47.7943 28.422 48.1979 28.0396 48.4528 27.7635C48.8563 27.5086 49.2387 27.2325 49.7697 27.105C50.3008 26.9776 50.8318 26.8501 51.3416 26.8501C52.1276 26.8501 52.9135 26.9775 53.7207 27.2537C54.3792 27.5086 55.0377 27.9122 55.6962 28.3158L54.6341 29.8877C54.1031 29.4841 53.572 29.2292 53.0622 28.9743C52.5312 28.7194 52.0001 28.7194 51.4903 28.7194C50.9593 28.7194 50.4282 28.8468 50.0459 29.123C49.791 29.3779 49.5148 29.7815 49.5148 30.1851C49.5148 30.44 49.5148 30.5887 49.6423 30.8436C49.7697 30.971 49.8972 31.2472 50.0459 31.3746C50.3008 31.5021 50.5769 31.6295 50.9593 31.7782C51.3629 31.9057 51.7452 32.0331 52.4037 32.1818C52.9348 32.3092 53.4658 32.4367 54.1243 32.7128C54.5279 32.8403 54.9103 33.1164 55.3139 33.3713C55.5688 33.6262 55.8449 34.0298 55.9724 34.2847C56.0998 34.6883 56.2273 35.0707 56.2273 35.6017C56.2273 36.1328 56.0998 36.6638 55.9724 37.0462C55.7175 37.4498 55.4413 37.8321 55.059 38.2357C54.6554 38.4906 54.273 38.7668 53.742 38.8942C53.0835 38.8517 52.425 38.9792 51.8939 38.9792Z" fill="#F3BA2F"/>
<path d="M58.4785 26.9985H60.7301L64.2775 32.5214L67.9736 26.9985H70.204V38.8515H68.1011V30.291L64.405 35.8139H64.2775L60.6027 30.291V38.8515H58.4785V26.9985Z" fill="#F3BA2F"/>
<path d="M77.3205 26.8711H79.2959L84.4365 38.724H82.2061L81.0165 35.8351H75.4937L74.3041 38.724H72.2012L77.3205 26.8711ZM80.358 34.1146L78.2551 29.3776L76.2796 34.1146H80.358Z" fill="#F3BA2F"/>
<path d="M86.5396 26.9985H91.8075C92.466 26.9985 93.1245 27.126 93.783 27.2534C94.3141 27.3809 94.8451 27.7845 95.2275 28.1668C95.4824 28.4217 95.7585 28.8253 96.0134 29.3564C96.1409 29.76 96.2683 30.2698 96.2683 30.8008C96.2683 31.2044 96.1409 31.7142 96.0134 32.1178C95.886 32.5214 95.6098 32.7763 95.4824 33.1799C95.2275 33.4348 94.9513 33.711 94.569 33.9659C94.1654 34.2208 93.783 34.3694 93.3794 34.4969L96.5445 38.9789H94.0379L91.149 34.9005H88.515V38.9789H86.4121L86.5396 26.9985ZM91.6801 32.7976C92.3386 32.7976 92.9971 32.6701 93.4007 32.2665C93.8043 31.8629 94.0592 31.3531 94.0592 30.8221C94.0592 30.291 93.8043 29.76 93.4007 29.3776C92.8696 28.974 92.2111 28.8466 91.5526 28.8466H88.515V32.7976H91.6801Z" fill="#F3BA2F"/>
<path d="M101.683 28.8466H97.8594V26.9985H107.482V28.8466H103.658V38.8515H101.555L101.683 28.8466Z" fill="#F3BA2F"/>
<path d="M120.273 38.979C119.487 38.979 118.701 38.8515 117.894 38.4479C116.449 37.7894 115.26 36.7273 114.729 35.2829C114.474 34.4969 114.198 33.711 114.325 32.9038C114.325 32.1178 114.453 31.3319 114.729 30.5247C115.26 29.0803 116.449 27.8907 117.894 27.2322C118.68 26.9773 119.466 26.7012 120.4 26.7012C120.931 26.7012 121.462 26.7012 121.845 26.8286C122.248 26.9561 122.631 27.0835 123.034 27.2322C123.438 27.3597 123.693 27.6358 124.096 27.7633C124.351 28.0182 124.755 28.2943 125.01 28.5492L123.693 30.1211C123.289 29.7175 122.779 29.3352 122.248 29.059C121.717 28.8041 121.059 28.6554 120.4 28.6554C119.869 28.6554 119.338 28.7829 118.828 28.9103C118.297 29.1652 117.915 29.4414 117.511 29.8237C117.108 30.2273 116.853 30.6097 116.725 31.1407C116.598 31.6718 116.471 32.2028 116.471 32.7126C116.471 33.2437 116.598 33.7747 116.725 34.2845C116.853 34.7943 117.129 35.1979 117.511 35.6015C117.915 36.0051 118.297 36.26 118.828 36.5149C119.359 36.7698 119.89 36.9185 120.4 36.7698C121.059 36.7698 121.717 36.6423 122.248 36.3662C122.779 36.1113 123.31 35.7077 123.82 35.1767L125.137 36.4937C124.882 36.7486 124.479 37.1522 124.224 37.4071C123.82 37.662 123.565 37.9381 123.162 38.0656C122.758 38.193 122.376 38.4692 121.845 38.4692C121.314 38.979 120.783 38.979 120.273 38.979Z" fill="#F3BA2F"/>
<path d="M127.238 26.9985H129.214V31.8629H134.885V26.9985H136.988V38.8515H134.885V33.8384H129.214V38.8515H127.238V26.9985Z" fill="#F3BA2F"/>
<path d="M144.233 26.8711H146.208L151.349 38.724H149.118L147.929 35.8351H142.406L141.216 38.724H139.113L144.233 26.8711ZM147.143 34.1146L145.167 29.3776L143.192 34.1146H147.143Z" fill="#F3BA2F"/>
<path d="M153.451 26.9985H155.575V38.8515H153.451V26.9985Z" fill="#F3BA2F"/>
<path d="M158.719 26.9985H160.567L166.897 35.1554V26.9985H169V38.8515H167.279L160.843 30.4185V38.8515H158.719V26.9985Z" fill="#F3BA2F"/>
<path d="M23.982 38.0654V43.2059L19.5 45.8399L15.1454 43.2059V38.0654L19.5 40.6993L23.982 38.0654ZM0 20.2859L4.35458 22.9199V31.7353L11.8529 36.2173V41.3578L0 34.3693V20.2859ZM39 20.2859V34.3905L27.0196 41.3791V36.2386L34.518 31.7565V22.9412L39 20.2859ZM26.9984 13.2974L31.4804 15.9314V21.0719L23.982 25.5539V34.4967L19.6275 37.1307L15.2941 34.4967V25.5327L7.51961 21.0507V15.9101L12.0016 13.2761L19.5 17.7582L26.9984 13.2974ZM7.51961 24.7467L11.8742 27.3807V32.5212L7.51961 29.8872V24.7467ZM31.4804 24.7467V29.8872L27.1258 32.5212V27.3807L31.4804 24.7467ZM4.35458 8.81536L8.8366 11.4493L4.35458 14.0833V19.2239L0 16.5899V11.4493L4.35458 8.81536ZM34.6454 8.81536L39.1275 11.4493V16.5899L34.6454 19.2239V14.0833L30.2909 11.4493L34.6454 8.81536ZM19.5 8.81536L23.982 11.4493L19.5 14.0833L15.1454 11.4493L19.5 8.81536ZM19.5 0L31.4804 6.98856L27.1258 9.62255L19.6275 5.14052L11.9804 9.62255L7.62582 6.98856L19.5 0Z" fill="#F3BA2F"/>
</svg>
